Coordinates
version=1
nRows=32
nColumns=12
inDegrees=yes

Units are S.I. units (second, meters, Newtons, ...)
Angles are in degrees

endheader
time	SC_y	SC_z	SC_x	AC_y	AC_z	AC_x	GH_y	GH_z	GH_yy	EL_x	PS_y
       0.0              -55.44           37.4          74.95          43.02         -12.68          14.27          84.47          9.124          54.89          17.93          10.09
     0.006              -55.44           37.4          74.95          43.02         -12.68          14.27          84.47          9.128           54.9          17.94          10.09
     0.012              -55.43          37.39          74.95          43.02         -12.68          14.26          84.46          9.132           54.9          17.96          10.09
     0.018              -55.43          37.39          74.95          43.02         -12.68          14.26          84.46          9.136           54.9          17.97          10.09
     0.024              -55.43          37.39          74.95          43.02         -12.68          14.26          84.45           9.14           54.9          17.99          10.09
      0.03              -55.43          37.38          74.95          43.02         -12.68          14.26          84.45          9.145           54.9           18.0          10.09
     0.036              -55.42          37.38          74.95          43.02         -12.68          14.26          84.44           9.15          54.91          18.02          10.09
     0.042              -55.42          37.37          74.95          43.03         -12.68          14.25          84.44          9.156          54.91          18.04          10.08
     0.048              -55.42          37.37          74.95          43.03         -12.68          14.25          84.43          9.162          54.91          18.05          10.08
     0.054              -55.42          37.36          74.95          43.03         -12.68          14.25          84.42          9.168          54.91          18.07          10.08
      0.06              -55.41          37.36          74.95          43.03         -12.68          14.25          84.41          9.175          54.92           18.1          10.08
     0.066              -55.41          37.35          74.96          43.03         -12.68          14.24          84.41          9.182          54.92          18.12          10.08
     0.072              -55.41          37.34          74.96          43.04         -12.69          14.24           84.4           9.19          54.92          18.15          10.08
     0.078               -55.4          37.33          74.96          43.04         -12.69          14.23          84.39          9.198          54.93          18.17          10.08
     0.084               -55.4          37.33          74.96          43.04         -12.69          14.23          84.38          9.207          54.93           18.2          10.08
      0.09              -55.39          37.32          74.96          43.04         -12.69          14.23          84.36          9.217          54.93          18.24          10.07
     0.096              -55.39          37.31          74.96          43.05         -12.69          14.22          84.35          9.228          54.94          18.27          10.07
     0.102              -55.38           37.3          74.96          43.05         -12.69          14.22          84.34          9.239          54.94          18.31          10.07
     0.108              -55.37          37.29          74.96          43.05         -12.69          14.21          84.32          9.252          54.95          18.35          10.07
     0.114              -55.37          37.27          74.96          43.06         -12.69           14.2          84.31          9.266          54.95           18.4          10.06
      0.12              -55.36          37.26          74.96          43.06         -12.69           14.2          84.29          9.281          54.96          18.45          10.06
     0.126              -55.35          37.24          74.96          43.07         -12.69          14.19          84.27          9.298          54.97           18.5          10.06
     0.132              -55.34          37.23          74.96          43.07         -12.69          14.18          84.25          9.317          54.98          18.56          10.06
     0.138              -55.33          37.21          74.96          43.08         -12.69          14.17          84.22          9.338          54.99          18.63          10.05
     0.144              -55.32          37.19          74.96          43.09         -12.69          14.16           84.2           9.36           55.0           18.7          10.05
      0.15              -55.31          37.17          74.96          43.09         -12.69          14.15          84.17          9.386          55.01          18.79          10.04
     0.156              -55.29          37.14          74.96           43.1         -12.69          14.14          84.14          9.415          55.02          18.88          10.04
     0.162              -55.28          37.11          74.96          43.11          -12.7          14.12           84.1          9.447          55.03          18.99          10.03
     0.168              -55.26          37.08          74.96          43.12          -12.7          14.11          84.06          9.484          55.05          19.11          10.03
     0.174              -55.24          37.04          74.97          43.14          -12.7          14.09          84.01          9.525          55.07          19.24          10.02
      0.18              -55.21           37.0          74.97          43.15          -12.7          14.07          83.95          9.572          55.09           19.4          10.01
     0.186              -55.19          36.95          74.97          43.17          -12.7          14.04          83.89          9.626          55.11          19.57           10.0
